<svg viewBox="0 0 64 64" fill="none" xmlns="http://www.w3.org/2000/svg">
  <defs>
    <linearGradient id="pinGrad" x1="10" y1="4" x2="54" y2="60" gradientUnits="userSpaceOnUse">
      <stop offset="0" stop-color="#38bdf8"/>
      <stop offset="0.55" stop-color="#2563eb"/>
      <stop offset="1" stop-color="#12245a"/>
    </linearGradient>
  </defs>
  <path d="M15 5 H35 a16.5 16.5 0 0 1 0 33 H23 V59 H15 Z" fill="url(#pinGrad)"/>
  <path d="M23 13 H35 a8.5 8.5 0 0 1 0 17 H23 Z" fill="#ffffff"/>
  <g>
    <line x1="20.5" y1="21.5" x2="27" y2="17" stroke="#2563eb" stroke-width="1.3"/>
    <line x1="20.5" y1="21.5" x2="27" y2="26" stroke="#2563eb" stroke-width="1.3"/>
    <line x1="20.5" y1="21.5" x2="16.5" y2="26.5" stroke="#2563eb" stroke-width="1.3"/>
    <circle cx="20.5" cy="21.5" r="2.6" fill="#2563eb"/>
    <circle cx="27" cy="17" r="1.7" fill="#38bdf8"/>
    <circle cx="27" cy="26" r="1.7" fill="#38bdf8"/>
    <circle cx="16.5" cy="26.5" r="1.7" fill="#1d4ed8"/>
  </g>
  <g fill="#60a5fa">
    <circle cx="31" cy="18" r="1"/><circle cx="34.5" cy="18" r="0.9"/><circle cx="38" cy="18" r="0.8"/>
    <circle cx="31" cy="22" r="1"/><circle cx="34.5" cy="22" r="0.9"/><circle cx="38" cy="22" r="0.8"/>
    <circle cx="31" cy="26" r="1"/><circle cx="34.5" cy="26" r="0.9"/>
  </g>
</svg>
